<svg width="109" height="32" viewBox="0 0 109 32" fill="none" xmlns="http://www.w3.org/2000/svg">
<path d="M23.6647 8.35923C23.6647 8.56076 23.6587 8.7599 23.6444 8.95547C23.6444 8.96739 23.6444 8.98051 23.6432 8.99124H23.5705C23.4846 8.98886 23.4047 8.98886 23.332 8.98886C17.1466 8.98886 11.2606 11.3189 6.75424 15.5498C3.53934 18.568 1.2474 22.3457 0.0549316 26.4979V0H13.4917C16.9654 0 19.528 0.784645 21.1844 2.35275C22.8347 3.92204 23.6635 5.92062 23.6635 8.35923H23.6647Z" fill="#193C89"/>
<path d="M23.5479 9.87729C23.5121 10.1313 23.4608 10.3781 23.4012 10.6226C23.3189 10.9803 23.208 11.3321 23.0781 11.6684C22.9385 12.0154 22.7835 12.3505 22.6046 12.6736C22.1443 13.4929 21.5541 14.2 20.8302 14.7903C14.9335 18.4702 10.8027 24.7164 9.99306 31.9667H0.057373V31.6316C0.857522 19.4803 10.9745 9.8761 23.3321 9.8761C23.4048 9.8761 23.4752 9.8761 23.5467 9.87729H23.5479Z" fill="#193C89"/>
<path d="M24.8489 23.1519C24.8489 25.9244 23.945 28.084 22.136 29.6366C20.327 31.1892 17.6869 31.9679 14.2144 31.9679H10.885C11.6613 25.2686 15.3508 19.3646 21.0365 15.7085C21.0485 15.7157 21.0616 15.7228 21.0723 15.7312C22.1646 16.4013 23.0375 17.2814 23.679 18.3808C24.4589 19.7057 24.8477 21.2964 24.8477 23.1519H24.8489Z" fill="#193C89"/>
<path d="M36.8928 15.6346L34.8417 14.4171L32.675 15.4175L33.1997 13.0898L31.5791 11.3393L33.9545 11.1187L35.1184 9.03662L36.0628 11.2272L38.4024 11.6911L36.6113 13.2663L36.8928 15.6346Z" fill="#EFC100"/>
<path d="M0 31.9988V31.9642C0.00715484 31.8509 0.015502 31.7412 0.0250418 31.6279C0.413788 25.7252 3.01099 20.2362 7.33848 16.1723C11.685 12.0905 17.3648 9.84265 23.3319 9.84265C23.4047 9.84265 23.4762 9.84265 23.5478 9.84385C25.4617 9.86054 27.3672 10.1122 29.2096 10.5903C29.9585 10.7811 30.7086 11.0149 31.4407 11.2879L31.5826 11.3404L31.4324 11.3511C30.5595 11.4143 29.6711 11.5324 28.7922 11.7005C25.9637 12.2383 23.2902 13.2877 20.848 14.8177C14.7628 18.6157 10.8193 24.8666 10.0263 31.9702L10.0227 32H0V31.9988Z" fill="#EFC100"/>
<path d="M43.7503 20.5L45.4303 12.1H49.4863C50.3983 12.1 51.0943 12.264 51.5743 12.592C52.0623 12.92 52.3063 13.396 52.3063 14.02C52.3063 14.548 52.1663 14.992 51.8863 15.352C51.6143 15.712 51.2503 15.984 50.7943 16.168C50.3383 16.352 49.8423 16.444 49.3063 16.444L49.6183 15.964C50.3223 15.964 50.8823 16.128 51.2983 16.456C51.7223 16.776 51.9343 17.24 51.9343 17.848C51.9343 18.44 51.7703 18.936 51.4423 19.336C51.1223 19.728 50.6783 20.02 50.1103 20.212C49.5423 20.404 48.8903 20.5 48.1543 20.5H43.7503ZM45.9823 19.036H48.2743C48.8103 19.036 49.2303 18.936 49.5343 18.736C49.8463 18.528 50.0023 18.224 50.0023 17.824C50.0023 17.512 49.8863 17.292 49.6543 17.164C49.4303 17.028 49.1263 16.96 48.7423 16.96H46.1743L46.4623 15.544H48.6463C48.9823 15.544 49.2703 15.5 49.5103 15.412C49.7583 15.324 49.9463 15.192 50.0743 15.016C50.2023 14.832 50.2663 14.612 50.2663 14.356C50.2663 14.076 50.1583 13.876 49.9423 13.756C49.7263 13.628 49.4223 13.564 49.0303 13.564H47.0623L45.9823 19.036ZM52.8061 20.5L54.0901 14.044H55.8661L55.4941 15.88L55.3261 15.352C55.6141 14.832 55.9901 14.468 56.4541 14.26C56.9181 14.052 57.4741 13.948 58.1221 13.948L57.7861 15.676C57.7061 15.668 57.6301 15.664 57.5581 15.664C57.4941 15.656 57.4261 15.652 57.3541 15.652C56.8021 15.652 56.3501 15.788 55.9981 16.06C55.6541 16.332 55.4221 16.772 55.3021 17.38L54.6781 20.5H52.8061ZM57.9389 20.5L59.2229 14.044H61.0829L59.7989 20.5H57.9389ZM60.4709 13.144C60.1429 13.144 59.8789 13.052 59.6789 12.868C59.4789 12.676 59.3789 12.444 59.3789 12.172C59.3789 11.852 59.4909 11.588 59.7149 11.38C59.9469 11.164 60.2469 11.056 60.6149 11.056C60.9429 11.056 61.2069 11.148 61.4069 11.332C61.6149 11.508 61.7189 11.728 61.7189 11.992C61.7189 12.336 61.6029 12.616 61.3709 12.832C61.1469 13.04 60.8469 13.144 60.4709 13.144ZM64.2846 22.924C63.6606 22.924 63.0846 22.852 62.5566 22.708C62.0366 22.564 61.5886 22.352 61.2126 22.072L62.1006 20.716C62.3566 20.924 62.6846 21.092 63.0846 21.22C63.4926 21.348 63.9206 21.412 64.3686 21.412C65.0166 21.412 65.5006 21.272 65.8206 20.992C66.1486 20.712 66.3686 20.296 66.4806 19.744L66.7086 18.58L67.1406 17.068L67.4286 15.436L67.6926 14.044H69.4806L68.4126 19.42C68.1646 20.66 67.6926 21.552 66.9966 22.096C66.3086 22.648 65.4046 22.924 64.2846 22.924ZM64.5606 20.188C64.0326 20.188 63.5526 20.08 63.1206 19.864C62.6886 19.648 62.3446 19.34 62.0886 18.94C61.8326 18.532 61.7046 18.044 61.7046 17.476C61.7046 16.98 61.7926 16.52 61.9686 16.096C62.1526 15.672 62.4046 15.3 62.7246 14.98C63.0526 14.652 63.4326 14.4 63.8646 14.224C64.3046 14.04 64.7846 13.948 65.3046 13.948C65.7766 13.948 66.2046 14.036 66.5886 14.212C66.9726 14.388 67.2686 14.672 67.4766 15.064C67.6926 15.456 67.7726 15.98 67.7166 16.636C67.6686 17.348 67.5126 17.972 67.2486 18.508C66.9846 19.036 66.6246 19.448 66.1686 19.744C65.7206 20.04 65.1846 20.188 64.5606 20.188ZM65.0646 18.652C65.4326 18.652 65.7566 18.572 66.0366 18.412C66.3166 18.252 66.5366 18.032 66.6966 17.752C66.8566 17.464 66.9366 17.136 66.9366 16.768C66.9366 16.376 66.8086 16.068 66.5526 15.844C66.2966 15.612 65.9406 15.496 65.4846 15.496C65.1166 15.496 64.7886 15.576 64.5006 15.736C64.2206 15.896 63.9966 16.12 63.8286 16.408C63.6686 16.688 63.5886 17.012 63.5886 17.38C63.5886 17.772 63.7206 18.084 63.9846 18.316C64.2486 18.54 64.6086 18.652 65.0646 18.652ZM74.9789 13.948C75.5229 13.948 75.9869 14.064 76.3709 14.296C76.7549 14.52 77.0269 14.852 77.1869 15.292C77.3549 15.732 77.3749 16.276 77.2469 16.924L76.5269 20.5H74.6549L75.3509 17.044C75.4469 16.572 75.4069 16.208 75.2309 15.952C75.0629 15.696 74.7509 15.568 74.2949 15.568C73.8229 15.568 73.4269 15.704 73.1069 15.976C72.7949 16.248 72.5789 16.664 72.4589 17.224L71.8109 20.5H69.9389L71.7149 11.596H73.5869L72.7349 15.868L72.3629 15.316C72.6749 14.844 73.0589 14.5 73.5149 14.284C73.9789 14.06 74.4669 13.948 74.9789 13.948ZM80.8638 20.596C80.3998 20.596 80.0038 20.504 79.6758 20.32C79.3478 20.128 79.1118 19.856 78.9678 19.504C78.8318 19.144 78.8118 18.72 78.9078 18.232L80.0238 12.616H81.8958L80.7798 18.22C80.7318 18.492 80.7598 18.708 80.8638 18.868C80.9678 19.028 81.1598 19.108 81.4398 19.108C81.5678 19.108 81.6958 19.088 81.8238 19.048C81.9598 19.008 82.0838 18.952 82.1958 18.88L82.4718 20.212C82.2398 20.356 81.9838 20.456 81.7038 20.512C81.4238 20.568 81.1438 20.596 80.8638 20.596ZM78.4278 15.628L78.7158 14.188H83.1918L82.9038 15.628H78.4278ZM85.8651 20.5L91.2891 12.1H93.2211L95.2851 20.5H93.3411L91.7091 13.06H92.4771L87.9411 20.5H85.8651ZM88.1091 18.7L88.9011 17.224H93.2331L93.4611 18.7H88.1091ZM96.0366 20.5L97.3206 14.044H99.0966L98.7246 15.88L98.5566 15.352C98.8446 14.832 99.2206 14.468 99.6846 14.26C100.149 14.052 100.705 13.948 101.353 13.948L101.017 15.676C100.937 15.668 100.861 15.664 100.789 15.664C100.725 15.656 100.657 15.652 100.585 15.652C100.033 15.652 99.5806 15.788 99.2286 16.06C98.8846 16.332 98.6526 16.772 98.5326 17.38L97.9086 20.5H96.0366ZM104.519 20.596C103.855 20.596 103.275 20.476 102.779 20.236C102.291 19.996 101.911 19.66 101.639 19.228C101.367 18.796 101.231 18.288 101.231 17.704C101.231 16.984 101.399 16.344 101.735 15.784C102.071 15.216 102.535 14.768 103.127 14.44C103.719 14.112 104.399 13.948 105.167 13.948C105.855 13.948 106.451 14.092 106.955 14.38C107.459 14.66 107.831 15.06 108.071 15.58L106.487 16.372C106.351 16.068 106.159 15.848 105.911 15.712C105.671 15.568 105.383 15.496 105.047 15.496C104.679 15.496 104.351 15.588 104.063 15.772C103.775 15.948 103.547 16.196 103.379 16.516C103.211 16.828 103.127 17.192 103.127 17.608C103.127 18.048 103.255 18.4 103.511 18.664C103.775 18.92 104.147 19.048 104.627 19.048C104.955 19.048 105.255 18.98 105.527 18.844C105.799 18.7 106.027 18.48 106.211 18.184L107.591 19.048C107.287 19.536 106.863 19.916 106.319 20.188C105.783 20.46 105.183 20.596 104.519 20.596Z" fill="#1A1A1A"/>
</svg>
