<svg width="84" height="33" viewBox="0 0 84 33" fill="none" xmlns="http://www.w3.org/2000/svg">
<path d="M10.0552 0V17.1643C10.0552 17.7363 10.2589 18.2273 10.6663 18.6373C11.0737 19.0447 11.5621 19.2485 12.1341 19.2485C12.7087 19.2485 13.1997 19.0447 13.6071 18.6373C14.0145 18.2273 14.2183 17.7363 14.2183 17.1643C14.2183 16.5897 14.0145 16.0922 13.6071 15.6704C13.1997 15.2499 12.7087 15.0383 12.1341 15.0383H10.6245V4.98318H12.1341C13.8265 4.98318 15.4001 5.30443 16.8561 5.9443C18.3148 6.58548 19.601 7.47869 20.7163 8.62394C21.8341 9.76657 22.7064 11.0737 23.3332 12.5468C23.96 14.0172 24.2734 15.596 24.2734 17.2844C24.2734 18.9455 23.96 20.5125 23.3332 21.9856C22.7064 23.456 21.8341 24.7488 20.7163 25.8666C19.601 26.9844 18.3148 27.8567 16.8561 28.4835C15.4001 29.1064 13.8265 29.4185 12.1341 29.4185C10.473 29.4185 8.906 29.1064 7.43299 28.4835C5.96258 27.8567 4.66978 26.9844 3.55195 25.8666C2.43674 24.7488 1.56704 23.456 0.940223 21.9856C0.313408 20.5125 0 18.9455 0 17.2844V0H10.0552Z" fill="#603DC8"/>
<path d="M46.9357 31.521H39.6177V22.9545C39.6177 21.4854 39.8593 20.2057 40.3437 19.1153C40.8308 18.0223 41.4851 17.1147 42.3078 16.3939C43.1331 15.6704 44.055 15.1298 45.0762 14.7746C46.1 14.4168 47.146 14.2366 48.2155 14.2366C49.2876 14.2366 50.3388 14.4168 51.3705 14.7746C52.4008 15.1298 53.3214 15.6704 54.1337 16.3939C54.9485 17.1147 55.5989 18.0223 56.0873 19.1153C56.5743 20.2057 56.8185 21.4854 56.8185 22.9545V31.521H49.4952V22.9545C49.4952 22.5158 49.366 22.1736 49.1087 21.9255C48.8501 21.6787 48.5524 21.5546 48.2155 21.5546C47.8982 21.5546 47.6057 21.6787 47.338 21.9255C47.0689 22.1736 46.9357 22.5158 46.9357 22.9545V31.521Z" fill="#171616"/>
<path d="M59.1944 6.40112C60.3854 6.40112 61.5111 6.62312 62.5714 7.06842C63.6318 7.51503 64.5642 8.13009 65.3673 8.91361C66.1717 9.69843 66.8103 10.6165 67.2856 11.6664C67.7648 12.7176 68.0143 13.8367 68.0339 15.0224H60.6831C60.644 14.6503 60.4846 14.3395 60.2039 14.0927C59.927 13.8406 59.5914 13.7153 59.1944 13.7153C58.7779 13.7153 58.4188 13.8655 58.1184 14.1658C57.8233 14.4609 57.6757 14.8161 57.6757 15.2327C57.6757 15.6493 57.8233 16.0084 58.1184 16.3087C58.4188 16.6039 58.7779 16.7514 59.1944 16.7514C59.5914 16.7514 59.927 16.6274 60.2039 16.3805C60.4846 16.1337 60.644 15.8216 60.6831 15.4442H68.0339C68.0143 16.6352 67.7648 17.7556 67.2856 18.8068C66.8103 19.8581 66.1717 20.7852 65.3673 21.5883C64.5642 22.3928 63.6318 23.0222 62.5714 23.4766C61.5111 23.9324 60.3854 24.1596 59.1944 24.1596C57.9878 24.1596 56.8478 23.9271 55.7731 23.4623C54.7023 22.9934 53.7607 22.347 52.9472 21.523C52.1336 20.7004 51.499 19.7484 51.0445 18.6684C50.5888 17.5885 50.3616 16.4432 50.3616 15.2327C50.3616 14.0039 50.5888 12.8586 51.0445 11.797C51.499 10.7366 52.1336 9.80029 52.9472 8.98674C53.7607 8.17318 54.7023 7.53853 55.7731 7.08409C56.8478 6.62834 57.9878 6.40112 59.1944 6.40112Z" stroke="#FFF9F9" stroke-width="1.78001"/>
<path d="M59.1972 6.39478C60.3882 6.39478 61.5125 6.61938 62.5716 7.0686C63.6333 7.51521 64.5669 8.12896 65.3714 8.91248C66.1758 9.696 66.8143 10.614 67.2884 11.6652C67.765 12.7139 68.0144 13.833 68.0353 15.0239H60.6859C60.6441 14.6478 60.4835 14.337 60.2054 14.0889C59.9298 13.8421 59.5942 13.7181 59.1972 13.7181C58.7794 13.7181 58.4202 13.8682 58.1212 14.1673C57.8248 14.4637 57.6772 14.8189 57.6772 15.2329C57.6772 15.6508 57.8248 16.0099 58.1212 16.3089C58.4202 16.6053 58.7794 16.7529 59.1972 16.7529C59.5942 16.7529 59.9298 16.6301 60.2054 16.382C60.4835 16.1313 60.6441 15.8179 60.6859 15.4418H68.0353C68.0144 16.6328 67.765 17.7545 67.2884 18.8057C66.8143 19.8582 66.1758 20.7854 65.3714 21.5898C64.5669 22.3916 63.6333 23.0198 62.5716 23.4755C61.5125 23.9312 60.3882 24.1598 59.1972 24.1598C57.988 24.1598 56.848 23.926 55.7759 23.4598C54.7024 22.9936 53.7596 22.3498 52.9447 21.5271C52.1325 20.7018 51.4992 19.7499 51.0434 18.6699C50.5864 17.5913 50.3591 16.4447 50.3591 15.2329C50.3591 14.0041 50.5864 12.8588 51.0434 11.7958C51.4992 10.7342 52.1325 9.79786 52.9447 8.98561C53.7596 8.17075 54.7024 7.5361 55.7759 7.07905C56.848 6.6233 57.988 6.39478 59.1972 6.39478Z" fill="#FFDE59"/>
<path d="M32.1904 14.8291H39.5712V23.3708C39.5712 24.7994 39.3257 26.0543 38.8373 27.1343C38.3528 28.2142 37.6946 29.1166 36.8615 29.8426C36.0283 30.5648 35.096 31.1041 34.0643 31.4632C33.034 31.821 31.9828 31.9999 30.912 31.9999C29.8229 31.9999 28.7625 31.821 27.7309 31.4632C26.6992 31.1041 25.7682 30.5648 24.935 29.8426C24.1019 29.1166 23.4411 28.2142 22.9514 27.1343C22.4669 26.0543 22.2253 24.7994 22.2253 23.3708V14.8291H29.6048V23.073C29.6048 23.5862 29.7432 23.9741 30.0187 24.2353C30.2956 24.4925 30.5933 24.6205 30.912 24.6205C31.2319 24.6205 31.5244 24.4925 31.7908 24.2353C32.0572 23.9741 32.1904 23.5862 32.1904 23.073V14.8291Z" stroke="#FFF9F9" stroke-width="1.78001"/>
<path d="M32.1917 14.832H39.5725V23.3672C39.5725 24.7958 39.3283 26.0507 38.8412 27.1333C38.3567 28.2132 37.6972 29.1156 36.8615 29.839C36.0283 30.5638 35.0973 31.1057 34.0669 31.4635C33.0353 31.8187 31.9841 31.9963 30.912 31.9963C29.8216 31.9963 28.7612 31.8187 27.7309 31.4635C26.6992 31.1057 25.7668 30.5638 24.9311 29.839C24.098 29.1156 23.4385 28.2132 22.9514 27.1333C22.4669 26.0507 22.2253 24.7958 22.2253 23.3672V14.832H29.6061V23.0694C29.6061 23.5852 29.7432 23.9731 30.0187 24.2343C30.2969 24.4928 30.5946 24.6208 30.912 24.6208C31.228 24.6208 31.5205 24.4928 31.7895 24.2343C32.0572 23.9731 32.1917 23.5852 32.1917 23.0694V14.832Z" fill="#171616"/>
<path d="M49.9886 9.61644C49.8698 9.77315 49.73 9.9181 49.5707 10.05C49.414 10.1832 49.239 10.285 49.0484 10.3582C48.8603 10.4287 48.6605 10.4561 48.4477 10.4417C48.2361 10.4287 48.0168 10.3503 47.7895 10.2067L48.2649 9.57465C48.4503 9.6517 48.6175 9.68304 48.7663 9.66868C48.9152 9.6517 49.0484 9.60077 49.1633 9.5172C49.2808 9.43101 49.384 9.32915 49.4715 9.21424C49.5968 9.04708 49.6661 8.88255 49.6804 8.71801C49.6935 8.55086 49.623 8.40852 49.4663 8.28968C49.354 8.2035 49.239 8.17346 49.1215 8.20088C49.0027 8.2257 48.8812 8.28315 48.7559 8.37326C48.6305 8.46467 48.5025 8.56914 48.3693 8.68667C48.2374 8.79897 48.1029 8.90605 47.9671 9.01052C47.8287 9.11499 47.6838 9.19857 47.5336 9.26125C47.3808 9.32393 47.2241 9.34874 47.0635 9.33438C46.9042 9.32132 46.7383 9.24949 46.5672 9.12021C46.3583 8.9609 46.2225 8.77808 46.1598 8.57175C46.0945 8.36281 46.0906 8.14343 46.1494 7.91359C46.2055 7.68376 46.3165 7.45915 46.4837 7.23977C46.6443 7.03083 46.8323 6.86368 47.0478 6.73831C47.2607 6.61034 47.4905 6.53852 47.7373 6.52415C47.9815 6.50718 48.2361 6.57116 48.4999 6.71742L48.0246 7.33901C47.8235 7.25283 47.6328 7.24238 47.4552 7.30767C47.2776 7.37035 47.1262 7.48527 47.0008 7.65242C46.8859 7.80651 46.8219 7.95799 46.8075 8.10686C46.7945 8.25312 46.8493 8.37326 46.9747 8.46728C47.0765 8.54433 47.1823 8.56914 47.2933 8.54041C47.4056 8.51299 47.5205 8.45553 47.6381 8.36803C47.7569 8.28185 47.8783 8.1826 48.0037 8.0703C48.1369 7.95538 48.2753 7.84569 48.4216 7.74122C48.5678 7.63414 48.7193 7.54795 48.876 7.48527C49.0353 7.41998 49.2012 7.39516 49.3722 7.41214C49.542 7.42651 49.7222 7.50486 49.9103 7.6472C50.2132 7.87703 50.3725 8.16824 50.3908 8.51952C50.4117 8.86818 50.2772 9.23382 49.9886 9.61644Z" fill="#171616"/>
<path d="M53.2786 6.60296L52.6309 7.01561L50.8027 4.15838L49.7476 4.8322L49.3767 4.2524L52.1243 2.49731L52.4951 3.07712L51.4504 3.74572L53.2786 6.60296Z" fill="#171616"/>
<path d="M56.9611 5.25323C56.5772 5.3342 56.2533 5.3355 55.9895 5.25846C55.7283 5.1788 55.5168 5.03646 55.3575 4.83013C55.2008 4.62119 55.0911 4.36786 55.0284 4.06751L54.4956 1.52368L55.2582 1.36175L55.791 3.90558C55.825 4.07012 55.8811 4.21115 55.9582 4.32868C56.0378 4.44751 56.1475 4.52978 56.2873 4.57418C56.4257 4.61989 56.6033 4.61989 56.82 4.57418C57.0355 4.52978 57.1974 4.45796 57.3058 4.36002C57.4129 4.26339 57.4808 4.14455 57.5095 4.00483C57.537 3.8664 57.533 3.71492 57.4991 3.55038L56.9663 1.00656L57.7185 0.849854L58.2513 3.39368C58.314 3.69403 58.3153 3.97087 58.2565 4.22421C58.1964 4.47885 58.0606 4.69432 57.8491 4.87192C57.6362 5.04691 57.3398 5.17357 56.9611 5.25323Z" fill="#171616"/>
<path d="M61.0965 5.04268L59.9316 4.83374L60.6473 0.816895L61.8121 1.02583C62.4937 1.14858 62.9848 1.41498 63.2851 1.82502C63.5841 2.23637 63.6769 2.76525 63.5619 3.41296C63.447 4.05414 63.1767 4.51511 62.7523 4.79717C62.3266 5.08185 61.7755 5.16412 61.0965 5.04268ZM61.2845 1.63175L60.8092 4.2905L61.2062 4.36363C61.4739 4.41325 61.7181 4.41455 61.9375 4.36885C62.1568 4.32053 62.3397 4.20953 62.4859 4.03455C62.6348 3.86087 62.7393 3.60884 62.7993 3.27715C62.8516 2.96374 62.8385 2.70126 62.7628 2.4884C62.6896 2.27293 62.559 2.10056 62.371 1.97128C62.1856 1.84331 61.9583 1.75451 61.6867 1.70488L61.2845 1.63175Z" fill="#171616"/>
<path d="M65.1287 6.38785L64.4392 6.0431L66.2831 2.40234L66.9726 2.74709L65.1287 6.38785Z" fill="#171616"/>
<path d="M67.7231 8.41665C67.4854 8.1829 67.317 7.9374 67.2164 7.68014C67.1185 7.4255 67.0806 7.16955 67.1015 6.91229C67.125 6.65896 67.1981 6.41345 67.3209 6.17579C67.4423 5.93942 67.603 5.72134 67.8015 5.52285C67.996 5.32175 68.2115 5.15721 68.4492 5.03185C68.6855 4.90648 68.9297 4.83205 69.1804 4.80724C69.4338 4.78373 69.6897 4.81769 69.9483 4.91171C70.2095 5.00573 70.4576 5.17027 70.6953 5.40271C70.9355 5.64038 71.104 5.88719 71.2019 6.14444C71.2986 6.40301 71.3377 6.65896 71.3168 6.91229C71.296 7.16563 71.2241 7.41113 71.1027 7.6488C70.9799 7.88516 70.8219 8.10455 70.6273 8.30696C70.4289 8.50545 70.2108 8.66738 69.9744 8.79274C69.7367 8.9181 69.4912 8.99254 69.2379 9.01735C68.9833 9.04477 68.7273 9.00951 68.4701 8.91288C68.2115 8.81886 67.9634 8.65301 67.7231 8.41665ZM68.2089 7.92565C68.3891 8.10585 68.5824 8.21555 68.7887 8.25472C68.9976 8.29259 69.2092 8.26648 69.426 8.17637C69.6453 8.08496 69.8543 7.94132 70.0528 7.74282C70.2473 7.54042 70.3871 7.33148 70.4706 7.11601C70.5542 6.89924 70.5764 6.6903 70.5385 6.48397C70.4994 6.27503 70.3897 6.08046 70.2095 5.89894C70.0345 5.72526 69.8412 5.61949 69.6297 5.58031C69.4207 5.54244 69.2079 5.56725 68.9924 5.65344C68.7756 5.74093 68.5706 5.88588 68.376 6.08699C68.1775 6.28548 68.0339 6.49442 67.9477 6.7138C67.8641 6.93319 67.8432 7.14474 67.885 7.35106C67.9268 7.56 68.0339 7.75066 68.2089 7.92565Z" fill="#171616"/>
<path d="M74.153 14.8293C75.6783 14.8293 77.099 15.1179 78.4167 15.6938C79.7382 16.2696 80.8012 17.1785 81.6056 18.4178C82.4087 19.6571 82.8109 21.2672 82.8109 23.2482V31.5208H75.5477V23.2482C75.5477 22.7729 75.4145 22.4072 75.1481 22.1513C74.8817 21.894 74.5735 21.7569 74.2248 21.7373C73.8762 21.7125 73.5693 21.8261 73.3029 22.0781C73.0365 22.3249 72.9033 22.7154 72.9033 23.2482V31.5208H65.5813V10.6675H72.9033V14.9168C73.3199 14.858 73.7364 14.8293 74.153 14.8293Z" stroke="#FFF9F9" stroke-width="1.78001"/>
<path d="M74.1483 14.8319C75.6761 14.8319 77.1008 15.1192 78.4211 15.6938C79.74 16.2683 80.8003 17.1759 81.6021 18.4152C82.4066 19.6558 82.8088 21.2672 82.8088 23.2521V31.5209H75.5482V23.2521C75.5482 22.7755 75.4136 22.4085 75.1459 22.15C74.8769 21.8927 74.5688 21.753 74.2214 21.7321C73.8766 21.7112 73.5698 21.8261 73.3021 22.0768C73.0331 22.325 72.8999 22.7167 72.8999 23.2521V31.5209H65.5818V10.6636H72.8999V14.9207C73.3177 14.8619 73.733 14.8319 74.1483 14.8319Z" fill="#171616"/>
</svg>
