<svg width="90" height="38" viewBox="0 0 90 38" fill="none" xmlns="http://www.w3.org/2000/svg">
<path d="M7.50523 31.767C7.6719 31.767 7.78388 31.8035 7.84377 31.8764C7.90237 31.9493 7.93231 32.0561 7.93231 32.1941V34.3347C7.90106 34.8634 7.75653 35.3217 7.50002 35.7097C7.24611 36.099 6.9232 36.4167 6.53127 36.6628C6.13804 36.9102 5.71877 37.0938 5.27085 37.2149C4.82293 37.336 4.38673 37.3972 3.96355 37.3972C3.53256 37.3972 3.08595 37.3373 2.62501 37.2201C2.16277 37.1055 1.73178 36.9232 1.33334 36.6732C0.933596 36.4206 0.610679 36.0899 0.364584 35.6837C0.121094 35.2748 0 34.78 0 34.1993V30.5743C0 29.9949 0.121094 29.4936 0.364584 29.0691C0.610679 28.6459 0.933596 28.3022 1.33334 28.0378C1.73178 27.7709 2.16277 27.5743 2.62501 27.4493C3.08595 27.3217 3.53256 27.2566 3.96355 27.2566C4.42449 27.2566 4.88803 27.323 5.35418 27.4545C5.82293 27.5873 6.25132 27.7813 6.64064 28.0378C7.02866 28.2917 7.34117 28.6082 7.57815 28.9858C7.81382 29.3647 7.93231 29.8009 7.93231 30.293C7.93231 30.4701 7.90237 30.5834 7.84377 30.6316C7.78388 30.6811 7.6719 30.7045 7.50523 30.7045H6.07293C5.8672 30.7045 5.75522 30.6459 5.73439 30.5274C5.71356 30.4102 5.68361 30.3022 5.64585 30.2045C5.56512 29.9792 5.38804 29.7722 5.1146 29.5847C4.83986 29.3972 4.45574 29.3035 3.96355 29.3035C3.48438 29.3035 3.09376 29.4519 2.79167 29.7462C2.49219 30.0417 2.34376 30.4259 2.34376 30.8972V33.8607C2.34376 34.3334 2.49219 34.6993 2.79167 34.9597C3.09376 35.2201 3.48438 35.3503 3.96355 35.3503C4.44532 35.3503 4.83986 35.2305 5.14585 34.991C5.45054 34.7488 5.60418 34.3425 5.60418 33.7722H4.27605C4.10939 33.7722 3.9961 33.7344 3.93751 33.6576C3.87761 33.5782 3.84897 33.474 3.84897 33.3451V32.1941C3.84897 32.0561 3.87761 31.9493 3.93751 31.8764C3.9961 31.8035 4.10939 31.767 4.27605 31.767H7.50523Z" fill="#2B7A0B"/>
<path d="M17.8542 36.7045C17.9232 36.8061 17.9388 36.9102 17.9011 37.017C17.862 37.1251 17.7735 37.1785 17.6354 37.1785H15.8959C15.7188 37.1785 15.5781 37.1446 15.474 37.0743C15.3698 37.0053 15.263 36.892 15.1563 36.7357L13.5677 34.3607C13.4974 34.2748 13.4531 34.1785 13.4323 34.0743C13.4115 33.9701 13.4011 33.8165 13.4011 33.6107V32.4285C13.4011 32.293 13.4297 32.1889 13.4896 32.116C13.5482 32.0404 13.6628 32.0014 13.8333 32.0014H14.125C14.4896 32.0014 14.8138 31.8894 15.099 31.6628C15.3828 31.4376 15.5261 31.1524 15.5261 30.8087C15.5261 30.4272 15.3958 30.1238 15.1354 29.8972C14.875 29.668 14.5534 29.5535 14.1719 29.5535H12.2083V36.7514C12.2083 36.918 12.1719 37.0313 12.099 37.0899C12.026 37.1498 11.9193 37.1785 11.7813 37.1785H10.3229C10.194 37.1785 10.0911 37.1498 10.0156 37.0899C9.94271 37.0313 9.90625 36.918 9.90625 36.7514V27.918C9.90625 27.7826 9.93359 27.6785 9.98958 27.6055C10.0443 27.53 10.1563 27.491 10.3229 27.491H14.0365C14.5781 27.491 15.0261 27.5261 15.3802 27.5951C15.7344 27.6654 16.0365 27.7709 16.2865 27.9128C16.5365 28.0561 16.7656 28.2292 16.974 28.4337C17.2474 28.7019 17.4584 29.0365 17.6042 29.4389C17.7526 29.8425 17.8281 30.28 17.8281 30.7514C17.8281 31.2618 17.7188 31.7188 17.5 32.1212C17.2839 32.5248 17.0182 32.8594 16.7031 33.1264C16.3906 33.3907 16.0807 33.5769 15.7761 33.6837L17.8542 36.7045Z" fill="#2B7A0B"/>
<path d="M26.8453 35.1157C27.012 35.1157 27.124 35.1522 27.1839 35.2251C27.2425 35.298 27.2724 35.4048 27.2724 35.5428V36.7511C27.2724 36.88 27.2425 36.9842 27.1839 37.0636C27.124 37.1404 27.012 37.1782 26.8453 37.1782H20.2411C20.0706 37.1782 19.956 37.1404 19.8974 37.0636C19.8375 36.9842 19.8088 36.88 19.8088 36.7511V27.9022C19.8088 27.7668 19.8375 27.6626 19.8974 27.5897C19.956 27.5142 20.0706 27.4751 20.2411 27.4751H26.5953C26.762 27.4751 26.874 27.5142 26.9339 27.5897C26.9925 27.6626 27.0224 27.7668 27.0224 27.9022V29.1261C27.0224 29.255 26.9925 29.3592 26.9339 29.4386C26.874 29.5155 26.762 29.5532 26.5953 29.5532H22.1422V31.1626H26.0901C26.2594 31.1626 26.374 31.1991 26.4339 31.272C26.4925 31.3449 26.5224 31.4517 26.5224 31.5897V32.7407C26.5224 32.8696 26.4925 32.9738 26.4339 33.0532C26.374 33.13 26.2594 33.1678 26.0901 33.1678H22.1422V35.1157H26.8453Z" fill="#2B7A0B"/>
<path d="M36.1773 35.1157C36.344 35.1157 36.456 35.1522 36.5159 35.2251C36.5745 35.298 36.6044 35.4048 36.6044 35.5428V36.7511C36.6044 36.88 36.5745 36.9842 36.5159 37.0636C36.456 37.1404 36.344 37.1782 36.1773 37.1782H29.5732C29.4026 37.1782 29.288 37.1404 29.2294 37.0636C29.1695 36.9842 29.1409 36.88 29.1409 36.7511V27.9022C29.1409 27.7668 29.1695 27.6626 29.2294 27.5897C29.288 27.5142 29.4026 27.4751 29.5732 27.4751H35.9273C36.094 27.4751 36.206 27.5142 36.2659 27.5897C36.3245 27.6626 36.3544 27.7668 36.3544 27.9022V29.1261C36.3544 29.255 36.3245 29.3592 36.2659 29.4386C36.206 29.5155 36.094 29.5532 35.9273 29.5532H31.4742V31.1626H35.4221C35.5914 31.1626 35.706 31.1991 35.7659 31.272C35.8245 31.3449 35.8544 31.4517 35.8544 31.5897V32.7407C35.8544 32.8696 35.8245 32.9738 35.7659 33.0532C35.706 33.13 35.5914 33.1678 35.4221 33.1678H31.4742V35.1157H36.1773Z" fill="#2B7A0B"/>
<path d="M45.925 27.4753C46.063 27.4753 46.1698 27.5053 46.2427 27.5639C46.3156 27.6238 46.3521 27.7358 46.3521 27.9024V36.7514C46.3521 36.8803 46.3221 36.9844 46.2635 37.0639C46.2036 37.1407 46.0917 37.1785 45.925 37.1785H44.5864C44.3989 37.1785 44.2648 37.1316 44.1854 37.0378C44.1047 36.9441 44.0161 36.8243 43.9198 36.6785L40.7948 31.6212V36.7514C40.7948 36.918 40.7557 37.0313 40.6802 37.0899C40.6073 37.1498 40.5031 37.1785 40.3677 37.1785H38.9093C38.7804 37.1785 38.6763 37.1498 38.5968 37.0899C38.5161 37.0313 38.4771 36.918 38.4771 36.7514V27.9024C38.4771 27.767 38.5057 27.6628 38.5656 27.5899C38.6242 27.5144 38.7388 27.4753 38.9093 27.4753H40.2948C40.4784 27.4753 40.6099 27.5222 40.6906 27.616C40.77 27.7097 40.8586 27.8295 40.9562 27.9753L44.0812 33.0222V27.9024C44.0812 27.7358 44.1203 27.6238 44.201 27.5639C44.2805 27.5053 44.3833 27.4753 44.5083 27.4753H45.925Z" fill="#2B7A0B"/>
<path d="M60.1984 27.4753C60.3338 27.4753 60.438 27.5053 60.5109 27.5639C60.5864 27.6238 60.6255 27.7358 60.6255 27.9024V36.7514C60.6255 36.918 60.5864 37.0313 60.5109 37.0899C60.438 37.1498 60.3338 37.1785 60.1984 37.1785H58.7349C58.6099 37.1785 58.507 37.1498 58.4276 37.0899C58.3469 37.0313 58.3078 36.918 58.3078 36.7514V33.418H55.0213V36.7514C55.0213 36.918 54.9823 37.0313 54.9067 37.0899C54.8338 37.1498 54.7297 37.1785 54.5942 37.1785H53.1359C53.007 37.1785 52.9028 37.1498 52.8234 37.0899C52.7427 37.0313 52.7036 36.918 52.7036 36.7514V27.9024C52.7036 27.7358 52.7427 27.6238 52.8234 27.5639C52.9028 27.5053 53.007 27.4753 53.1359 27.4753H54.5942C54.7297 27.4753 54.8338 27.5053 54.9067 27.5639C54.9823 27.6238 55.0213 27.7358 55.0213 27.9024V31.2358H58.3078V27.9024C58.3078 27.7358 58.3469 27.6238 58.4276 27.5639C58.507 27.5053 58.6099 27.4753 58.7349 27.4753H60.1984Z" fill="#2B7A0B"/>
<path d="M68.9343 35.116C69.101 35.116 69.213 35.1524 69.2729 35.2253C69.3315 35.2982 69.3614 35.405 69.3614 35.543V36.7514C69.3614 36.8803 69.3315 36.9844 69.2729 37.0639C69.213 37.1407 69.101 37.1785 68.9343 37.1785H62.8302C62.6635 37.1785 62.5554 37.1498 62.5072 37.0899C62.4578 37.0313 62.4343 36.918 62.4343 36.7514V35.6576C62.4343 35.491 62.4604 35.3594 62.5125 35.2618C62.5671 35.1654 62.6296 35.0925 62.7 35.043C62.7 35.043 62.825 34.9363 63.075 34.7201C63.325 34.5014 63.6531 34.2149 64.0593 33.8607C64.4682 33.5066 64.9096 33.129 65.3823 32.7253C65.6974 32.4519 65.9981 32.1824 66.2833 31.918C66.5672 31.6511 66.8002 31.3868 66.9812 31.1264C67.1609 30.866 67.252 30.6081 67.252 30.3503C67.252 29.9688 67.1323 29.6928 66.8927 29.5222C66.6531 29.349 66.3562 29.2618 66.002 29.2618C65.6088 29.2618 65.2625 29.405 64.9604 29.6889C64.6609 29.974 64.5125 30.3334 64.5125 30.767C64.5125 30.892 64.4877 30.9936 64.4395 31.0691C64.3901 31.142 64.2859 31.1785 64.127 31.1785H62.8302C62.6843 31.1785 62.5815 31.1446 62.5229 31.0743C62.463 31.0053 62.4343 30.892 62.4343 30.7358C62.4343 29.9207 62.5971 29.2566 62.9239 28.7462C63.2533 28.2332 63.6895 27.8595 64.2312 27.6264C64.7729 27.3907 65.3575 27.2722 65.9864 27.2722C66.5763 27.2722 67.1388 27.4024 67.6739 27.6628C68.2078 27.9233 68.6453 28.2826 68.9864 28.741C69.3263 29.1967 69.4968 29.7279 69.4968 30.3347C69.4968 30.8386 69.4096 31.2722 69.2364 31.6368C69.0659 31.9988 68.8471 32.3191 68.5802 32.6003C68.3159 32.8816 68.0463 33.1498 67.7729 33.4024C67.4838 33.6602 67.1869 33.9219 66.8823 34.1889C66.5802 34.4532 66.3276 34.6732 66.127 34.8503C65.9252 35.0274 65.825 35.116 65.825 35.116H68.9343Z" fill="#2B7A0B"/>
<path d="M73.0333 34.689C73.1687 34.689 73.2729 34.7189 73.3458 34.7775C73.4213 34.8374 73.4604 34.9494 73.4604 35.116V36.7515C73.4604 36.9181 73.4213 37.0314 73.3458 37.09C73.2729 37.1499 73.1687 37.1785 73.0333 37.1785H71.3927C71.2677 37.1785 71.1648 37.1499 71.0854 37.09C71.0046 37.0314 70.9656 36.9181 70.9656 36.7515V35.116C70.9656 34.9494 71.0046 34.8374 71.0854 34.7775C71.1648 34.7189 71.2677 34.689 71.3927 34.689H73.0333Z" fill="#2B7A0B"/>
<path d="M83.8295 36.767C83.8672 36.8542 83.8764 36.9441 83.8555 37.0378C83.8373 37.1316 83.7462 37.1785 83.5795 37.1785H82.0274C81.8711 37.1785 81.7527 37.1498 81.6732 37.0899C81.5964 37.0313 81.5287 36.9128 81.4701 36.7357L81.0586 35.5691H77.4441L77.0326 36.7357C76.9727 36.9128 76.905 37.0313 76.8295 37.0899C76.7565 37.1498 76.6368 37.1785 76.4701 37.1785H74.9232C74.767 37.1785 74.6745 37.1316 74.6472 37.0378C74.6224 36.9441 74.6315 36.8542 74.6732 36.767L77.9441 27.9337C78.0026 27.7774 78.0795 27.6628 78.1732 27.5899C78.267 27.5144 78.392 27.4753 78.5482 27.4753H79.9649C80.1316 27.4753 80.2566 27.5144 80.3399 27.5899C80.4232 27.6628 80.4987 27.7774 80.5691 27.9337L83.8295 36.767ZM79.2566 30.2462L78.1524 33.5066H80.3659L79.2566 30.2462Z" fill="#2B7A0B"/>
<path d="M89.4398 35.1574C89.6065 35.1574 89.7184 35.1964 89.7783 35.272C89.8369 35.3449 89.8669 35.449 89.8669 35.5845V36.7511C89.8669 36.88 89.8369 36.9842 89.7783 37.0636C89.7184 37.1404 89.6065 37.1782 89.4398 37.1782H85.2679C85.1012 37.1782 84.988 37.1404 84.9294 37.0636C84.8695 36.9842 84.8408 36.88 84.8408 36.7511V35.5845C84.8408 35.449 84.8695 35.3449 84.9294 35.272C84.988 35.1964 85.1012 35.1574 85.2679 35.1574H86.195V29.5272H85.2992C85.1325 29.5272 85.0192 29.4881 84.9606 29.4074C84.9007 29.328 84.8721 29.2251 84.8721 29.1001V27.9022C84.8721 27.7668 84.9007 27.6626 84.9606 27.5897C85.0192 27.5142 85.1325 27.4751 85.2992 27.4751H89.3981C89.5648 27.4751 89.6768 27.5142 89.7367 27.5897C89.7953 27.6626 89.8252 27.7668 89.8252 27.9022V29.1001C89.8252 29.2251 89.7953 29.328 89.7367 29.4074C89.6768 29.4881 89.5648 29.5272 89.3981 29.5272H88.5127V35.1574H89.4398Z" fill="#2B7A0B"/>
<mask id="mask0_451_25196" style="mask-type:luminance" maskUnits="userSpaceOnUse" x="35" y="10" width="22" height="14">
<path d="M35.5334 10.3225H56.0023V23.6558H35.5334V10.3225Z" fill="white"/>
</mask>
<g mask="url(#mask0_451_25196)">
<path d="M51.1531 20.95C50.2703 21.4709 48.8498 22.4018 48.5503 20.8875C48.2326 19.2807 49.3003 15.7352 48.8185 13.7404C48.4969 12.4058 46.3419 11.2196 43.7729 13.1479C43.0854 13.6649 42.3667 14.4045 41.6466 15.424C42.1818 13.7248 42.7299 12.0242 43.2 10.6519C41.7247 11.2339 40.1258 11.7664 38.5463 12.3433C37.5255 15.7 36.1388 20.4513 35.6101 22.2703C35.5008 22.6466 35.7794 23.0242 36.1713 23.0307L39.6792 23.0958C39.6805 23.0958 39.6805 23.0958 39.6805 23.0958C39.7885 23.0958 39.8875 23.0347 39.9331 22.937C40.3107 22.1427 41.9995 18.6063 42.6974 17.4331C43.4865 16.1076 44.5984 14.7951 45.4422 15.1766C45.8042 15.3393 45.8927 16.0073 45.8576 16.8406C45.8055 18.0959 45.6531 19.7925 45.5685 20.6662C45.3953 22.48 46.2208 23.0737 47.0242 23.2977C48.9057 23.8211 50.8927 22.8276 55.9631 17.7C55.8459 17.7729 52.0242 20.4383 51.1531 20.95Z" fill="#498536"/>
</g>
<mask id="mask1_451_25196" style="mask-type:luminance" maskUnits="userSpaceOnUse" x="28" y="12" width="4" height="3">
<path d="M28.0022 12.9891H31.8668V14.9891H28.0022V12.9891Z" fill="white"/>
</mask>
<g mask="url(#mask1_451_25196)">
<path d="M31.8301 14.126C30.7142 14.5075 29.6152 14.238 29.6152 14.238C30.6035 14.3083 31.4499 13.6937 31.4499 13.6937C30.2363 12.458 28.9564 14.0179 28.0176 14.1026C29.765 15.2796 31.3066 14.5414 31.8301 14.126Z" fill="#498536"/>
</g>
<path d="M34.9726 12.1089C33.7929 12.144 32.8228 11.562 32.8228 11.562C33.746 11.9214 34.7369 11.5842 34.7369 11.5842C33.9426 10.0451 32.259 11.1571 31.3372 10.9618C32.6588 12.6011 34.3502 12.3524 34.9726 12.1089Z" fill="#498536"/>
<path d="M35.4588 13.7496C35.4588 13.7496 34.839 14.3928 34.783 15.2365C34.783 15.2365 34.684 14.2756 35.1385 13.3759C34.7244 13.7704 33.9197 14.9878 34.7088 16.6037C34.8911 15.8199 36.3611 14.9201 35.4588 13.7496Z" fill="#498536"/>
<path d="M45.444 0.896725C43.875 1.53344 42.5208 3.00349 41.4466 4.89411C40.7109 6.18969 40.0846 7.66234 39.5585 9.14932C39.4635 9.41885 39.3346 9.81208 39.1809 10.2951C34.7057 12.2353 29.94 14.6376 29.4192 19.066C30.3176 17.9891 33.6432 17.4201 32.5768 15.4097C32.5768 15.4097 31.4179 15.7053 30.6145 17.0412C30.6314 16.9996 31.2161 15.6519 32.5116 14.5165C37.8346 10.4097 47.8554 10.036 49.6823 4.87589C50.8385 1.60896 47.9674 -0.129315 45.444 0.896725ZM47.8906 4.62849C47.8906 4.62849 47.8906 4.62849 47.8906 4.62979C47.8906 4.63109 47.8906 4.6324 47.8893 4.6337C47.8893 4.635 47.8893 4.6363 47.8893 4.63761C47.5846 5.97224 46.2799 6.85896 45.0807 7.55557C44.7942 7.72875 44.4869 7.90062 44.1601 8.06989C45.3932 5.08292 46.3828 3.79516 47.151 3.68709C48.0312 3.56469 47.9062 4.52172 47.8906 4.62849Z" fill="#498536"/>
<mask id="mask2_451_25196" style="mask-type:luminance" maskUnits="userSpaceOnUse" x="36" y="10" width="22" height="14">
<path d="M36.8674 10.6559H57.5745V23.6559H36.8674V10.6559Z" fill="white"/>
</mask>
<g mask="url(#mask2_451_25196)">
<path d="M52.7496 20.9957C51.8655 21.5165 50.4436 22.4501 50.1428 20.9319C49.8251 19.3225 50.8928 15.7691 50.4123 13.7704C50.0894 12.4332 47.9332 11.2431 45.3602 13.1767C44.6727 13.6936 43.954 14.4358 43.2326 15.4566C43.7678 13.7548 44.3173 12.0504 44.7873 10.6741C43.3121 11.2587 41.7105 11.7913 40.1298 12.3707C39.1063 15.734 37.7196 20.4957 37.191 22.3173C37.0803 22.6949 37.3589 23.0738 37.7522 23.0803L41.2639 23.1454H41.2652C41.3733 23.1454 41.4709 23.0829 41.5178 22.9853C41.8954 22.1897 43.5855 18.6454 44.2847 17.4696C45.0751 16.1415 46.1871 14.8264 47.0321 15.2092C47.3954 15.3733 47.4827 16.0413 47.4488 16.8772C47.3967 18.135 47.2431 19.8342 47.1584 20.7105C46.9853 22.5282 47.8121 23.1233 48.6155 23.3472C50.4983 23.872 52.4879 22.8772 57.5634 17.7379C57.4449 17.8108 53.6194 20.4813 52.7496 20.9957Z" fill="#8CC63F"/>
</g>
<mask id="mask3_451_25196" style="mask-type:luminance" maskUnits="userSpaceOnUse" x="29" y="12" width="5" height="3">
<path d="M29.5745 12.9891H33.5341V14.9891H29.5745V12.9891Z" fill="white"/>
</mask>
<g mask="url(#mask3_451_25196)">
<path d="M33.4067 14.1557C32.2896 14.5385 31.1893 14.2677 31.1893 14.2677C32.1789 14.3393 33.0252 13.7221 33.0252 13.7221C31.8117 12.4851 30.5304 14.0476 29.5903 14.1322C31.339 15.3119 32.882 14.5723 33.4067 14.1557Z" fill="#8CC63F"/>
</g>
<path d="M36.5507 12.1351C35.3697 12.1702 34.3984 11.5869 34.3984 11.5869C35.3228 11.9476 36.3137 11.609 36.3137 11.609C35.5195 10.0674 33.8346 11.1819 32.9114 10.9853C34.2343 12.6286 35.927 12.3786 36.5507 12.1351Z" fill="#8CC63F"/>
<path d="M37.0365 13.7782C37.0365 13.7782 36.4167 14.4228 36.3594 15.2691C36.3594 15.2691 36.2617 14.3056 36.7162 13.4045C36.3021 13.7991 35.4961 15.0191 36.2865 16.6389C36.4688 15.8538 37.9401 14.9514 37.0365 13.7782Z" fill="#8CC63F"/>
<path d="M47.0328 0.898003C45.4612 1.53733 44.1057 3.00998 43.0315 4.90451C42.2945 6.20268 41.6682 7.67794 41.1422 9.16882C41.0458 9.43966 40.9169 9.83289 40.7633 10.3173C36.2828 12.2613 31.5146 14.6688 30.9924 19.1063C30.9924 19.1063 30.9924 19.1063 30.9924 19.105V19.1063C31.8909 18.0269 35.2203 17.4579 34.1539 15.4423C34.1539 15.4423 32.9937 15.7378 32.1877 17.0777C32.206 17.036 32.7906 15.6844 34.0875 14.5477C39.4169 10.4331 49.4469 10.0568 51.275 4.88758C52.4326 1.61285 49.5589 -0.129339 47.0328 0.898003ZM49.4808 4.63888C49.4808 4.64018 49.4808 4.64279 49.4808 4.64409C49.4808 4.64539 49.4808 4.6467 49.4795 4.648C49.1748 5.98524 47.8701 6.87325 46.6683 7.57247C46.3818 7.74565 46.0745 7.91752 45.7477 8.08679C46.9821 5.09331 47.9716 3.80295 48.7412 3.69487C49.6214 3.57248 49.4977 4.53211 49.4808 4.63888Z" fill="#8CC63F"/>
</svg>
